<svg version="1.1" id="Layer_1" xmlns="http://www.w3.org/2000/svg" xmlns:xlink="http://www.w3.org/1999/xlink" x="0px" y="0px"
	 width="100%" viewBox="0 0 982 881" enable-background="new 0 0 982 881" xml:space="preserve">


<path fill="#313030" opacity="1.000000" stroke="none" 
	d="
M814.464661,882.000000 
	C814.151550,875.565186 814.173767,869.124268 814.476196,862.696594 
	C816.198669,826.089600 817.990234,789.485840 819.742004,752.880188 
	C819.787903,751.921448 819.647461,750.953735 819.675354,751.455139 
	C811.689880,747.721985 803.780090,745.446045 797.563904,740.869690 
	C771.994202,722.045227 776.830139,682.749329 805.956116,669.982178 
	C809.256226,668.535645 810.727234,666.818848 812.115417,663.083252 
	C814.282043,657.252869 818.268311,651.588928 822.814392,647.248047 
	C836.421875,634.254822 850.889038,622.164795 864.584961,609.259888 
	C871.341125,602.893982 877.248230,595.604797 883.315247,588.540833 
	C885.715271,585.746399 887.247864,581.976990 891.982178,584.214844 
	C895.851135,573.510986 895.133728,564.268982 887.468506,555.888184 
	C876.511902,543.908569 863.238953,534.993958 849.273987,527.191895 
	C834.017944,518.668579 818.276001,511.014343 802.732361,503.007568 
	C801.717651,502.484833 800.587463,502.186279 798.664001,501.466553 
	C788.868896,600.001892 770.099243,697.048401 763.420227,795.840332 
	C684.604614,795.840332 605.840759,795.840332 526.398132,795.840332 
	C524.747620,707.135010 518.587280,618.736633 508.739227,529.968933 
	C502.599518,535.070801 497.191193,539.921997 491.422211,544.297668 
	C464.610931,564.633606 433.890320,574.780151 400.756500,577.855286 
	C349.613251,582.602112 300.591980,572.956970 252.925735,554.930786 
	C252.180603,554.649048 251.507263,554.177368 250.428635,553.592834 
	C252.849731,547.787292 255.193161,542.167908 257.686401,536.189331 
	C251.739990,533.677185 246.085373,531.339539 240.472046,528.906616 
	C226.935440,523.039673 215.832535,514.066101 205.901779,503.174286 
	C191.278076,487.135559 174.663971,473.433350 153.556870,466.828644 
	C142.634232,463.410797 131.167770,461.762329 120.038757,458.951202 
	C117.121628,458.214325 114.547050,456.121399 111.815155,454.651245 
	C114.049713,452.414490 116.239204,450.129517 118.547310,447.971436 
	C119.207527,447.354156 120.211372,447.104431 120.925102,445.531677 
	C81.201813,445.531677 41.478523,445.531677 1.377615,445.265839 
	C1.000000,443.285645 1.000000,441.571289 1.000004,439.428467 
	C1.540843,438.732513 2.432105,438.584808 2.570607,438.179749 
	C5.153591,430.625488 11.385003,431.542908 17.387579,431.546539 
	C71.858307,431.579468 126.329071,431.548157 181.581711,431.698425 
	C182.853912,431.884155 183.344223,431.907104 184.193115,431.926208 
	C187.592682,432.281586 190.630890,432.920593 193.675156,432.950745 
	C205.760986,433.070496 217.854065,433.213043 229.933487,432.910126 
	C235.982056,432.758484 242.007034,431.665894 248.248260,431.255432 
	C249.065567,431.538483 249.677277,431.564941 250.289001,431.591400 
	C288.805511,431.599213 327.322205,431.666290 365.838226,431.532745 
	C370.185211,431.517670 372.709137,433.241302 374.317413,437.585815 
	C374.680664,438.891815 375.021332,439.585449 375.362000,440.279053 
	C376.247833,444.606018 374.164886,445.813782 370.144836,445.793335 
	C345.395691,445.667328 320.645844,445.680603 295.254517,445.453888 
	C294.256714,445.421326 293.900574,445.582428 293.544434,445.743530 
	C293.788086,446.164764 294.031708,446.585999 294.275360,447.007233 
	C293.152863,448.496124 292.246552,450.236145 290.865540,451.424683 
	C287.336639,454.461853 283.315948,456.965729 279.997009,460.201050 
	C272.368683,467.637146 272.321808,474.880188 279.695190,483.948944 
	C280.755463,482.013031 281.731049,480.231781 282.424194,478.966217 
	C293.609070,483.826538 304.273499,489.455261 315.563721,493.194580 
	C364.533051,509.413330 408.368683,500.375519 444.289337,462.886383 
	C456.438263,450.206970 465.212616,434.167206 474.804230,419.198608 
	C485.314789,402.795959 494.924957,385.818298 505.072632,369.179718 
	C507.405579,365.354553 510.352783,361.906464 512.979248,358.257507 
	C521.278748,346.727051 532.525452,341.005157 546.726013,341.039490 
	C550.725281,341.049164 554.724609,340.980988 558.723938,340.956940 
	C561.496094,340.940277 564.177429,341.418091 566.080261,338.160431 
	C566.629211,337.220673 570.477478,337.193207 572.081238,338.076416 
	C576.730469,340.636871 580.929321,343.999146 585.455505,346.803833 
	C589.267273,349.165924 593.252747,351.258850 597.230469,353.338745 
	C600.625793,355.114136 603.302307,355.023956 607.142212,352.664948 
	C613.613037,348.689606 621.328186,348.842834 627.992371,352.975647 
	C630.567322,354.572571 632.413879,354.865082 634.683289,353.501892 
	C642.376038,348.880981 650.055664,344.234955 657.654907,339.462616 
	C664.860901,334.937286 667.920837,335.857025 668.299805,344.274292 
	C668.943176,358.562866 668.500854,372.900696 668.490234,387.217804 
	C668.489136,388.665100 668.319519,390.112244 668.136658,393.007904 
	C670.926392,389.947937 672.746948,387.652100 674.865112,385.675201 
	C691.410767,370.233307 707.938293,354.769623 724.711121,339.577301 
	C726.450684,338.001648 729.894043,337.261719 732.307373,337.644409 
	C748.334900,340.185822 764.113586,343.934174 778.094482,352.556458 
	C783.534058,355.911133 788.069702,360.730194 793.023254,364.874817 
	C794.792175,366.354828 796.444946,368.024872 798.377747,369.250153 
	C841.074219,396.317871 882.342529,425.316040 919.686218,459.551758 
	C939.265625,477.501770 957.766479,496.511688 971.136597,519.718384 
	C975.665955,527.580139 978.646362,536.334229 982.667297,544.840271 
	C983.000000,559.687561 983.000000,574.375122 982.767334,589.836548 
	C976.413696,623.003235 965.544922,653.860718 952.478699,684.024475 
	C951.393677,686.529114 950.916016,689.407715 950.694458,692.156006 
	C949.798218,703.272339 949.771851,714.498718 948.215759,725.513794 
	C944.701050,750.393860 940.081970,775.120605 936.734375,800.020203 
	C935.529114,808.984619 931.820129,815.924255 925.242676,821.324097 
	C913.680725,830.816101 902.086853,840.348206 889.837097,848.905396 
	C870.582275,862.356079 849.926819,873.424377 828.000000,882.000000 
	C823.643127,882.000000 819.286194,882.000000 814.464661,882.000000 
M584.155884,447.346527 
	C591.258850,463.612213 598.361877,479.877930 605.464844,496.143616 
	C605.923035,496.061249 606.381226,495.978882 606.839417,495.896515 
	C619.089417,460.742889 638.611938,429.779419 662.146729,400.184143 
	C652.421753,396.035004 643.353760,391.955658 634.088867,388.387268 
	C632.189941,387.655884 629.422363,388.460297 627.282288,389.207367 
	C620.411743,391.605865 613.729797,391.621277 606.897522,388.998505 
	C604.647034,388.134613 601.676208,387.266602 599.645142,388.028168 
	C589.283752,391.913544 579.122131,396.331818 567.943237,400.955505 
	C573.399353,416.551910 578.658020,431.583862 584.155884,447.346527 
M207.499710,445.593292 
	C197.793198,445.593292 188.086670,445.593292 178.380157,445.593292 
	C180.104568,446.643341 181.870895,446.730377 183.597809,447.038391 
	C200.268173,450.011627 217.152603,452.160736 233.512894,456.352295 
	C242.980011,458.777771 251.096680,457.509125 259.575928,454.198242 
	C263.375519,452.714630 265.805206,450.194244 266.501984,445.595520 
	C247.013672,445.595520 227.756714,445.595520 207.499710,445.593292 
z"/>
<path fill="#313030" opacity="1.000000" stroke="none" 
	d="
M680.531372,1.000001 
	C687.422119,2.306828 693.869751,3.500568 700.262451,4.938139 
	C758.370483,18.005316 803.532715,69.379944 809.120178,128.710175 
	C816.543274,207.532593 763.269470,274.797546 684.888000,285.569031 
	C608.505798,296.065826 535.228271,239.545547 525.849426,162.899765 
	C516.773132,88.726418 563.137573,21.486313 634.964722,4.761876 
	C640.462891,3.481679 646.081726,2.719756 651.822266,1.358466 
	C661.354248,1.000000 670.708435,1.000000 680.531372,1.000001 
z"/>
<path fill="#313030" opacity="1.000000" stroke="none" 
	d="
M248.042694,430.998840 
	C242.007034,431.665894 235.982056,432.758484 229.933487,432.910126 
	C217.854065,433.213043 205.760986,433.070496 193.675156,432.950745 
	C190.630890,432.920593 187.592682,432.281586 184.269287,431.545898 
	C185.507996,430.501892 187.029114,429.834381 188.623657,429.134674 
	C186.439224,429.341644 184.232773,429.550720 182.026321,429.759766 
	C172.543106,429.317505 163.059875,428.875275 153.284653,427.815979 
	C152.991745,426.507324 152.990845,425.815735 152.989929,425.124115 
	C167.786102,425.124115 182.582260,425.124115 197.409714,425.124115 
	C197.010117,416.068848 195.109894,414.043243 187.304276,412.904663 
	C169.068802,410.244690 154.608215,401.182098 143.573669,386.576050 
	C141.890533,384.348145 140.541428,381.761292 139.531937,379.149475 
	C135.192566,367.922119 141.027634,357.583221 152.959488,355.808136 
	C157.856918,355.079498 162.930984,355.614807 167.900528,355.247742 
	C169.388290,355.137878 170.794250,353.920441 172.990509,352.971405 
	C202.455353,352.760742 231.167526,352.841461 259.879120,352.747223 
	C263.245514,352.736176 265.643127,353.221619 266.174255,356.979279 
	C266.325073,359.058350 266.475891,361.137451 266.466003,363.915405 
	C266.454590,365.820099 266.603851,367.025909 266.753113,368.231689 
	C266.558533,369.879364 266.363953,371.527069 265.934113,373.814392 
	C265.699890,375.047058 265.700928,375.640045 265.701965,376.233063 
	C265.562103,376.621613 265.422241,377.010193 264.997498,377.904114 
	C264.619415,379.003204 264.526215,379.596924 264.433044,380.190674 
	C260.111450,386.883911 255.579224,393.452515 251.524902,400.303925 
	C247.084671,407.807556 243.085754,415.572327 238.894516,423.223297 
	C239.298889,423.889618 239.703278,424.555969 240.107666,425.222290 
	C253.889053,425.222290 267.670441,425.222290 281.451813,425.222290 
	C281.462646,425.899628 281.473480,426.576965 281.484314,427.254303 
	C271.640991,431.807159 261.016663,428.854889 250.026260,429.774506 
	C248.855255,430.209900 248.448975,430.604370 248.042694,430.998840 
M182.486557,394.990631 
	C175.634628,386.758972 170.677505,377.723755 170.974640,366.280151 
	C165.944656,365.685883 161.366119,365.012543 156.763397,364.630646 
	C148.898422,363.978027 144.359894,369.947296 148.189621,376.751740 
	C155.666107,390.035645 166.460968,399.492767 181.957916,402.437469 
	C183.403809,402.712219 184.991745,402.239502 187.459702,402.035706 
	C185.543976,399.309753 184.227509,397.436523 182.486557,394.990631 
z"/>
<path fill="#313030" opacity="1.000000" stroke="none" 
	d="
M207.036011,323.542267 
	C206.976898,328.068024 206.976898,332.145325 206.976898,336.222626 
	C206.328552,336.310577 205.680206,336.398560 205.031860,336.486542 
	C204.105072,331.808685 202.481293,327.138611 202.429230,322.451019 
	C202.365158,316.684998 203.230087,310.827423 204.374969,305.146790 
	C206.501343,294.596130 210.388184,284.131439 202.884506,273.203369 
	C208.655869,276.057281 211.160507,278.885498 211.089783,285.062897 
	C210.983856,294.315125 209.899002,303.564728 209.015900,312.794922 
	C208.684631,316.257446 207.753021,319.662537 207.036011,323.542267 
z"/>
<path fill="#313030" opacity="1.000000" stroke="none" 
	d="
M227.158081,290.682617 
	C226.463547,297.003693 226.101074,302.965820 224.943726,308.769440 
	C223.116013,317.934662 220.754959,326.993500 218.598495,336.187500 
	C217.789688,332.659149 215.900070,328.570984 216.154388,324.620880 
	C216.618683,317.409607 217.836807,310.143860 219.683868,303.149994 
	C222.137543,293.859375 225.358215,284.796875 221.855896,274.989868 
	C225.660828,279.401794 226.385834,284.831268 227.158081,290.682617 
z"/>
<path fill="#313030" opacity="1.000000" stroke="none" 
	d="
M238.972137,295.685669 
	C240.806885,287.584656 240.213669,280.186646 236.182678,273.144409 
	C241.936096,276.270477 244.020386,281.554382 243.731018,287.270142 
	C243.263367,296.507385 241.897430,305.701447 240.842941,314.905975 
	C240.032959,321.976074 239.118454,329.034210 238.041794,337.795563 
	C236.774567,332.718506 234.790863,328.834259 235.076233,325.124603 
	C235.823425,315.412018 237.561478,305.775726 238.972137,295.685669 
z"/>
<path fill="#313030" opacity="1.000000" stroke="none" 
	d="
M173.017273,350.977112 
	C172.126175,347.435272 174.541260,347.651947 176.784607,347.653046 
	C189.609848,347.659210 202.435089,347.657501 215.260330,347.664001 
	C231.250046,347.672089 247.239777,347.685486 263.759796,348.247070 
	C262.805359,349.494965 261.323700,350.793396 259.835388,350.801025 
	C230.896469,350.949829 201.956802,350.948029 173.017273,350.977112 
z"/>
<path fill="#313030" opacity="1.000000" stroke="none" 
	d="
M173.008911,351.246033 
	C201.956802,350.948029 230.896469,350.949829 259.835388,350.801025 
	C261.323700,350.793396 262.805359,349.494965 264.231689,348.341370 
	C264.991638,350.732544 265.810028,353.579865 266.401306,356.703217 
	C265.643127,353.221619 263.245514,352.736176 259.879120,352.747223 
	C231.167526,352.841461 202.455353,352.760742 173.267517,352.646545 
	C172.861298,352.212128 172.930923,351.863556 173.008911,351.246033 
z"/>
<path fill="#313030" opacity="1.000000" stroke="none" 
	d="
M182.069214,430.067200 
	C184.232773,429.550720 186.439224,429.341644 188.623657,429.134674 
	C187.029114,429.834381 185.507996,430.501892 183.910706,431.549744 
	C183.344223,431.907104 182.853912,431.884155 182.030243,431.702942 
	C181.835297,431.154694 181.973709,430.764648 182.069214,430.067200 
z"/>
<path fill="#313030" opacity="1.000000" stroke="none" 
	d="
M152.661926,425.064758 
	C152.990845,425.815735 152.991745,426.507324 153.010742,427.544342 
	C151.873123,427.240295 150.717407,426.590881 148.439926,425.311096 
	C150.633575,425.138916 151.483749,425.072174 152.661926,425.064758 
z"/>



</svg>